<?xml version="1.0" encoding="utf-8"?>
<!-- Generator: Adobe Illustrator 26.4.1, SVG Export Plug-In . SVG Version: 6.00 Build 0)  -->
<svg version="1.1" id="Layer_1" xmlns="http://www.w3.org/2000/svg" xmlns:xlink="http://www.w3.org/1999/xlink" x="0px" y="0px"
	 width="1024px" height="1024px" viewBox="0 0 1024 1024" style="enable-background:new 0 0 1024 1024;" xml:space="preserve">
<style type="text/css">
	.st0{fill:#FFFFFF;}
</style>
<g>
	<path class="st0" d="M701.7999878,834.2000122c-85.4000244,0-165.8999634-33.0999756-226.6000061-93.2000122l-0.1000061-0.0999756
		L297.7999878,563.5999756c-20.6000061-20.7000122-32-48.0999756-31.8999939-77.2999878S277.5,429.6999817,298.2999878,409.1999817
		c20.5-20.2999878,47.7000122-31.3999939,76.5-31.3999939c0.1000061,0,0.2000122,0,0.2999878,0
		c29,0.1000061,56.2000122,11.3999939,76.7000122,31.8999939l162.5,162.4999695c19,19,50.0999756,19.0999756,69.2000122,0.2000122
		c9.2999878-9.2000122,14.5-21.5999756,14.5999756-34.7999878c0-13.2000122-5.0999756-25.5-14.4000244-34.7999878L506.5,325.5
		c-49.3999939-48.7999878-114.7999878-75.6999969-184.2999878-75.6999969c-0.2000122,0-0.3999939,0-0.6000061,0
		C250.5,250,184.1000061,277.8999939,134.7000122,328.3999939c-49.5,50.6000061-76,117.6999817-74.5999985,188.8000183
		c1.4000015,68.9000244,29.2000046,133.5,78.4999924,181.7999878c49.3000031,48.4000244,114.5,75.0999756,183.6999817,75.0999756
		c25.2999878,0,50.3999939-3.5999756,74.3999939-10.7000122c15.8999939-4.7000122,32.6000061,4.4000244,37.2999878,20.2999878
		c4.7000122,15.9000244-4.3999939,32.5999756-20.2999878,37.2999878
		c-29.6000061,8.7000122-60.2999878,13.2000122-91.3999939,13.2000122c-84.8999939,0-165.1000061-32.7999878-225.6999969-92.2000122
		C36,682.5,1.7,603.2000122,0.1,518.5c-0.9-44.1000061,7-87,23.2999992-127.5
		c15.8000011-39.1000061,38.7999954-74.2000122,68.3000031-104.5c29.5-30.2000122,64.0999985-53.8999939,102.7999954-70.6000061
		c40.1000061-17.1999969,82.7999878-26,126.8999939-26.1000061c0.2000122,0,0.5,0,0.7999878,0
		c85.3999939,0,165.8999939,33.1000061,226.6000061,93.1000061L548.8999634,283l177.2000122,177.2000122
		c20.7000122,20.7000122,32,48.2000122,31.9000244,77.4000244s-11.5999756,56.7000122-32.2999878,77.2000122
		c-42.5,42.0999756-111.5,41.9000244-153.7999878-0.4000244L409.3999939,452c-19-19-49.8999939-19-68.8999939-0.2000122
		c-9.2999878,9.2000122-14.5,21.5-14.5,34.6000061s5,25.5,14.2999878,34.6999817L517.5,698.2999878
		C566.7999878,747.0999756,632.2999878,774,701.7999878,774c70,0,135.7999878-27.2000122,185.2999878-76.7000122
		S963.8999634,582.0999756,964,512.0999756c0.0999756-70-27.2000122-135.8999939-76.7999878-185.5s-115.4000244-77-185.3999634-77
		c-22.2999878,0-44.5,2.8000031-65.7999878,8.2999878c-3.0999756,0.7999878-6.2000122,1.7000122-9.2999878,2.6000061
		c-15.9000244,4.7000122-32.5999756-4.2999878-37.2999878-20.1999969s4.2999878-32.5999908,20.2000122-37.3000031
		c3.7999878-1.1000061,7.5999756-2.1999969,11.4000244-3.1999969c26.2999878-6.8000031,53.5-10.1999969,80.9000244-10.1999969
		c43.5,0,85.7000122,8.5,125.4000244,25.3999939c38.4000244,16.3000031,72.7999878,39.5,102.4000244,69.1999817
		c29.5999756,29.6000061,52.7999878,64.1000061,69,102.5c16.7999878,39.7999878,25.3000488,82,25.3000488,125.5
		c-0.0999756,86-33.7000122,166.7999878-94.5,227.5999756C868.7000122,800.7000122,787.7999878,834.2000122,701.7999878,834.2000122
		z"/>
</g>
</svg>
